<?xml version="1.0" encoding="UTF-8" standalone="no"?>
<svg
   version="1.1"
   width="330.89001pt"
   height="355.28pt"
   id="svg65"
   viewBox="0 0 330.89001 355.28"
   sodipodi:docname="logo-skrót.svg"
   inkscape:version="1.3.2 (091e20ef0f, 2023-11-25, custom)"
   xmlns:inkscape="http://www.inkscape.org/namespaces/inkscape"
   xmlns:sodipodi="http://sodipodi.sourceforge.net/DTD/sodipodi-0.dtd"
   xmlns:xlink="http://www.w3.org/1999/xlink"
   xmlns="http://www.w3.org/2000/svg"
   xmlns:svg="http://www.w3.org/2000/svg">
  <defs
     id="defs69" />
  <sodipodi:namedview
     id="namedview67"
     pagecolor="#ffffff"
     bordercolor="#000000"
     borderopacity="0.25"
     inkscape:showpageshadow="2"
     inkscape:pageopacity="0.0"
     inkscape:pagecheckerboard="0"
     inkscape:deskcolor="#d1d1d1"
     inkscape:document-units="pt"
     inkscape:zoom="1.0142284"
     inkscape:cx="561.51058"
     inkscape:cy="258.81743"
     inkscape:window-width="1920"
     inkscape:window-height="1011"
     inkscape:window-x="0"
     inkscape:window-y="0"
     inkscape:window-maximized="1"
     inkscape:current-layer="svg65" />
  <g
     id="Layer1000"
     transform="translate(-242.1988,-100.7771)">
    <defs
       id="defs10">
      <linearGradient
         id="grad1">
        <stop
           offset="0.0000%"
           stop-color="#02336b"
           stop-opacity="1.0000"
           id="stop2" />
        <stop
           offset="99.0000%"
           stop-color="#7d88bf"
           stop-opacity="1.0000"
           id="stop4" />
        <stop
           offset="100.0000%"
           stop-color="#7d88bf"
           stop-opacity="1.0000"
           id="stop6" />
      </linearGradient>
      <linearGradient
         xlink:href="#grad1"
         id="grad2"
         x1="488.75131"
         y1="134.83305"
         x2="488.75131"
         y2="281.36194"
         gradientUnits="userSpaceOnUse"
         gradientTransform="scale(0.61479344,1.6265626)" />
    </defs>
    <path
       d="m 390.5661,219.7381 c -15.2342,1.5477 -27.2316,14.0417 -28.0122,29.503 -0.0284,0.5253 -0.0284,208.4117 -0.0284,208.4117 h -61.9452 c -0.0281,-1.2779 -0.0992,-151.7766 -0.0992,-151.7905 2.9355,-22.0218 24.0089,-58.64 40.1805,-71.1054 10.2447,-7.8967 42.7796,-17.6697 49.5213,-14.9904 0.1326,0.0527 0.2695,-0.0142 0.3832,-0.0284 z"
       style="fill:url(#grad2)"
       id="path12" />
    <defs
       id="defs22">
      <linearGradient
         id="grad3">
        <stop
           offset="0.0000%"
           stop-color="#ffc800"
           stop-opacity="1.0000"
           id="stop14" />
        <stop
           offset="99.0000%"
           stop-color="#d87b0a"
           stop-opacity="1.0000"
           id="stop16" />
        <stop
           offset="100.0000%"
           stop-color="#d87b0a"
           stop-opacity="1.0000"
           id="stop18" />
      </linearGradient>
      <linearGradient
         xlink:href="#grad3"
         id="grad4"
         x1="691.18176"
         y1="61.993008"
         x2="691.18176"
         y2="208.43752"
         gradientTransform="scale(0.61514975,1.6256204)"
         gradientUnits="userSpaceOnUse" />
    </defs>
    <path
       d="m 425.1803,338.692 c 15.2342,-1.5477 27.2315,-14.042 28.0122,-29.5032 0.0286,-0.525 0.0286,-208.4117 0.0286,-208.4117 h 61.9453 c 0.028,1.2779 0.0992,151.7766 0.0992,151.7766 -6.1348,57.0206 -65.079,88.9693 -89.7018,86.1097 -0.142,-0.0164 -0.2699,0.0145 -0.3835,0.0286 z"
       style="fill:url(#grad4)"
       id="path24" />
    <defs
       id="defs33">
      <linearGradient
         id="grad5"
         gradientTransform="scale(1.3571544,0.73683585)"
         x1="178.46075"
         y1="342.7735"
         x2="379.71835"
         y2="342.7735"
         gradientUnits="userSpaceOnUse">
        <stop
           offset="0.0000%"
           stop-color="#ffc800"
           stop-opacity="1.0000"
           id="stop26" />
        <stop
           offset="99.0000%"
           stop-color="#d87b0a"
           stop-opacity="1.0000"
           id="stop28" />
        <stop
           offset="100.0000%"
           stop-color="#d87b0a"
           stop-opacity="1.0000"
           id="stop30" />
      </linearGradient>
    </defs>
    <path
       d="m 242.1988,400.8501 0.0569,-62.0727 c 0,0 182.5697,-0.057 182.9246,-0.0854 0.1136,-0.0141 0.2412,-0.0141 0.3835,-0.0286 7.3684,-0.5678 14.9218,-2.357 22.3614,-5.2673 0.0286,-0.0142 0.0428,-0.0142 0.0711,-0.0284 4.5431,-1.8031 9.1006,-4.0323 13.5023,-6.6872 6.4879,-3.9042 12.7068,-8.7744 18.4428,-14.5103 13.9708,-13.9277 28.864,-37.0136 34.3729,-55.9394 0,0 0.9229,-3.5351 0.9513,-3.663 v 1.4624 l 0.0425,15.7595 0.0283,25.5705 v 0.3833 h -0.0283 c -0.1137,26.479 -10.1228,52.9154 -29.9999,73.2747 -0.2979,0.3413 -2.2575,2.2433 -2.8965,2.8539 -21.524,20.4307 -49.5646,30.0286 -77.2075,28.8644 0,0 -162.9485,0.1701 -163.0054,0.1136 z"
       style="fill:url(#grad5)"
       id="path35" />
    <defs
       id="defs45">
      <linearGradient
         id="grad6">
        <stop
           offset="0.0000%"
           stop-color="#02336b"
           stop-opacity="1.0000"
           id="stop37" />
        <stop
           offset="99.0000%"
           stop-color="#7d88bf"
           stop-opacity="1.0000"
           id="stop39" />
        <stop
           offset="100.0000%"
           stop-color="#7d88bf"
           stop-opacity="1.0000"
           id="stop41" />
      </linearGradient>
      <linearGradient
         xlink:href="#grad6"
         id="grad7"
         x1="221.35278"
         y1="213.8447"
         x2="221.35278"
         y2="415.10236"
         gradientTransform="scale(1.3571544,0.73683586)"
         gradientUnits="userSpaceOnUse" />
    </defs>
    <path
       d="m 573.5476,157.58 -0.057,62.0728 c 0,0 -183.1657,0.0995 -183.3077,0.1137 -7.3687,0.5677 -14.9222,2.357 -22.3617,5.2673 -0.0284,0.0142 -0.0425,0.0142 -0.0712,0.0283 -4.543,1.8032 -9.1006,4.0323 -13.5019,6.6873 -6.4883,3.9044 -12.7072,8.7743 -18.4431,14.5105 -13.9708,13.9278 -28.8638,37.0134 -34.3729,55.9392 0,0 -0.923,3.5354 -0.951,3.6632 l -0.0428,-17.2222 -0.0284,-25.9537 h 0.0284 c 0.1139,-26.4787 10.1231,-52.9152 29.9999,-73.2747 0.2982,-0.3411 2.2575,-2.2434 2.8964,-2.854 21.524,-20.4307 49.5649,-30.0285 77.2075,-28.864 0,0 162.9485,-0.1704 163.0055,-0.1137 z"
       style="fill:url(#grad7)"
       id="path47" />
  </g>
  <g
     id="Layer1001"
     transform="translate(-242.1988,-100.7771)">
    <path
       d="M 377.4304,439.1836 V 414.859 h 5.1576 v 24.3246 z"
       style="fill:#02336b;fill-rule:evenodd"
       id="path50" />
    <path
       d="m 399.0431,418.8022 c -1.9411,0 -3.4441,0.7291 -4.5088,2.1878 -1.0649,1.4587 -1.5973,3.4912 -1.5973,6.0979 0,5.4241 2.0353,8.136 6.1061,8.136 1.7082,0 3.7769,-0.4272 6.2062,-1.2813 v 4.326 c -1.9967,0.832 -4.2262,1.2478 -6.6886,1.2478 -3.5385,0 -6.2448,-1.0729 -8.1193,-3.2193 -1.8746,-2.1464 -2.812,-5.2271 -2.812,-9.2426 0,-2.5288 0.4604,-4.7447 1.3811,-6.6467 0.9206,-1.9023 2.2433,-3.3611 3.9682,-4.3759 1.7246,-1.015 3.7462,-1.5224 6.0644,-1.5224 2.3627,0 4.7364,0.5711 7.1212,1.7138 l -1.6639,4.1927 c -0.9094,-0.4326 -1.8247,-0.8099 -2.7451,-1.1313 -0.9207,-0.3217 -1.8247,-0.4825 -2.7122,-0.4825 z"
       style="fill:#02336b;fill-rule:evenodd"
       id="path52" />
    <path
       d="m 430.356,439.1836 h -5.1412 v -10.4984 h -9.6335 v 10.4984 h -5.1576 V 414.859 h 5.1576 v 9.5334 h 9.6335 v -9.5334 h 5.1412 z"
       style="fill:#02336b;fill-rule:evenodd"
       id="path54" />
    <path
       d="m 436.4956,414.859 h 7.5702 c 3.4498,0 5.9536,0.4906 7.5121,1.4723 1.5585,0.9816 2.3377,2.5429 2.3377,4.6837 0,1.453 -0.3413,2.6455 -1.0233,3.5773 -0.6823,0.9315 -1.5888,1.4919 -2.7204,1.6804 v 0.1664 c 1.5418,0.3438 2.6538,0.987 3.3361,1.9298 0.682,0.9428 1.023,2.1963 1.023,3.7604 0,2.2184 -0.8013,3.9487 -2.404,5.1911 -1.6027,1.2422 -3.7798,1.8632 -6.5305,1.8632 h -9.1009 z m 5.1576,9.6332 v 0 h 2.9948 c 1.3978,0 2.4098,-0.2163 3.0365,-0.6488 0.6267,-0.4326 0.9403,-1.1481 0.9403,-2.1461 0,-0.9318 -0.3413,-1.6002 -1.0234,-2.005 -0.6823,-0.4051 -1.7608,-0.6074 -3.236,-0.6074 h -2.7122 z m 0,4.093 v 0 6.3391 h 3.3611 c 1.4196,0 2.4678,-0.2716 3.1444,-0.8153 0.6767,-0.5434 1.0151,-1.3753 1.0151,-2.4956 0,-2.0188 -1.442,-3.0282 -4.3259,-3.0282 z"
       style="fill:#02336b;fill-rule:evenodd"
       id="path56" />
    <path
       d="m 485.0454,422.4459 c 0,2.6178 -0.8181,4.6199 -2.4542,6.0063 -1.6359,1.3864 -3.9626,2.0798 -6.9795,2.0798 h -2.213 v 8.6516 h -5.1579 V 414.859 h 7.77 c 2.9506,0 5.194,0.6349 6.7303,1.9048 1.5361,1.2702 2.3043,3.1641 2.3043,5.6821 z m -11.6467,3.8599 v 0 h 1.6971 c 1.5863,0 2.7731,-0.3132 3.5606,-0.9399 0.7875,-0.6268 1.1812,-1.539 1.1812,-2.7372 0,-1.2089 -0.3299,-2.1019 -0.9899,-2.6784 -0.6599,-0.5769 -1.6942,-0.8654 -3.103,-0.8654 h -2.346 z"
       style="fill:#02336b;fill-rule:evenodd"
       id="path58" />
    <path
       d="m 504.5285,439.1836 -1.7634,-5.79 h -8.8682 l -1.7637,5.79 h -5.5571 l 8.5853,-24.4244 h 6.3057 l 8.6187,24.4244 z m -2.9948,-10.1157 v 0 c -1.6305,-5.2466 -2.5483,-8.2137 -2.7536,-8.9013 -0.2052,-0.688 -0.352,-1.2314 -0.4408,-1.6308 -0.3662,1.4199 -1.4145,4.9306 -3.1447,10.5321 z"
       style="fill:#02336b;fill-rule:evenodd"
       id="path60" />
    <path
       d="m 534.7265,439.1836 h -6.5554 L 517.5894,420.782 h -0.1497 c 0.2107,3.2499 0.3161,5.5683 0.3161,6.9548 v 11.4468 H 513.147 V 414.859 h 6.5055 l 10.5653,18.2185 h 0.1165 c -0.1664,-3.1612 -0.2498,-5.3963 -0.2498,-6.7051 V 414.859 h 4.642 z"
       style="fill:#02336b;fill-rule:evenodd"
       id="path62" />
  </g>
</svg>
